<?xml version="1.0" standalone="no"?>
<!DOCTYPE svg PUBLIC "-//W3C//DTD SVG 20010904//EN"
 "http://www.w3.org/TR/2001/REC-SVG-20010904/DTD/svg10.dtd">
<svg version="1.0" xmlns="http://www.w3.org/2000/svg"
 width="512.000000pt" height="512.000000pt" viewBox="0 0 512.000000 512.000000"
 preserveAspectRatio="xMidYMid meet">

<g transform="translate(0.000000,512.000000) scale(0.100000,-0.100000)"
fill="#000000" stroke="none">
<path d="M2534 5110 c-55 -22 -54 -12 -54 -566 l0 -511 -79 -5 c-92 -5 -132
-25 -175 -85 -35 -51 -45 -100 -46 -234 l0 -106 -57 -12 c-237 -53 -516 -182
-728 -338 -108 -79 -297 -267 -382 -379 -244 -320 -387 -727 -395 -1122 -2
-100 -1 -103 25 -130 l27 -27 539 -3 538 -2 12 -66 c54 -297 278 -540 578
-626 113 -33 333 -33 446 0 300 86 524 329 578 626 l12 66 538 2 539 3 27 28
c27 27 28 29 25 135 -8 309 -111 659 -275 932 -130 217 -358 468 -547 603
-173 123 -454 250 -657 297 l-52 12 -3 151 c-3 140 -5 155 -26 184 -38 54
-103 85 -187 91 l-72 4 -6 151 c-4 83 -7 309 -7 504 0 384 -2 397 -55 421 -30
14 -51 14 -81 2z m236 -1381 l0 -102 -52 7 c-29 3 -119 6 -200 6 l-148 0 0 95
0 95 200 0 200 0 0 -101z m12 -305 c215 -29 377 -79 563 -170 177 -88 296
-175 450 -329 155 -154 241 -271 330 -450 100 -200 159 -403 181 -617 l6 -68
-1747 0 -1748 0 7 80 c7 89 35 230 64 330 156 525 573 958 1102 1143 245 86
541 116 792 81z m392 -1886 c-50 -172 -178 -330 -324 -401 -113 -55 -185 -70
-310 -65 -125 6 -218 35 -316 99 -122 79 -227 226 -258 362 l-13 57 618 0 618
0 -15 -52z"/>
<path d="M1620 1253 c-19 -7 -469 -269 -491 -286 -36 -28 -50 -88 -29 -128 16
-28 68 -52 102 -45 43 9 478 263 516 302 36 38 41 71 15 114 -24 41 -70 59
-113 43z"/>
<path d="M3420 1233 c-19 -18 -33 -41 -36 -64 -5 -30 -2 -41 22 -67 40 -43
490 -303 535 -309 30 -4 42 0 70 25 27 24 33 37 32 66 -2 69 2 65 -427 313
-63 36 -122 63 -138 63 -16 0 -40 -11 -58 -27z"/>
<path d="M2005 866 c-42 -19 -47 -25 -195 -281 -81 -140 -134 -243 -137 -266
-4 -30 0 -42 25 -70 24 -27 37 -33 66 -32 20 1 47 8 59 16 30 20 306 495 314
540 4 28 0 40 -23 65 -35 38 -69 46 -109 28z"/>
<path d="M3054 870 c-32 -13 -54 -50 -54 -92 0 -29 28 -84 135 -270 75 -128
149 -245 166 -260 86 -80 197 18 143 125 -21 41 -217 377 -256 439 -37 59 -83
79 -134 58z"/>
<path d="M2521 716 c-48 -27 -50 -41 -51 -349 0 -317 3 -333 59 -357 39 -16
86 -5 111 27 19 24 20 40 20 333 l0 308 -31 26 c-33 28 -71 33 -108 12z"/>
</g>
</svg>
